<?xml version="1.0" standalone="no"?>
<!DOCTYPE svg PUBLIC "-//W3C//DTD SVG 1.0//EN" "http://www.w3.org/TR/2001/REC-SVG-20010904/DTD/svg10.dtd">
<svg xmlns="http://www.w3.org/2000/svg" xmlns:xlink="http://www.w3.org/1999/xlink" id="body_1" width="26" height="26">

<g transform="matrix(0.5416554 0 0 0.5416554 0 0)">
	<g>
	</g>
	<g>
	</g>
	<g>
        <path transform="matrix(1 0 0 1 -184 -423)"  d="M189 471C 186.23973 470.99722 184.00276 468.76028 184 466L184 466L184 428C 184.00331 425.23993 186.23994 423.0033 189 423L189 423L227 423C 229.76006 423.0033 231.99669 425.23993 232 428L232 428L232 466C 231.99724 468.76028 229.76027 470.99722 227 471L227 471L189 471zM216 469L227 469C 228.65686 469 230 467.65686 230 466L230 466L230 455L216 455zM201 469L215 469L215 455L201 455zM186 466C 186 467.65686 187.34314 469 189 469L189 469L200 469L200 455L186 455zM216 454L230 454L230 440L216 440zM211.707 454L215 454L215 450.708zM207.707 454L211 454L210.647 453.647L214.647 449.647L215 450L215 446.707zM203.707 454L207 454L206.646 453.647L214.646 445.647L215 446L215 442.707zM201 454L203 454L202.647 453.647L214.647 441.647L215 442L215 440L214.71 440C 214.80774 439.67258 214.88094 439.33832 214.929 439L214.929 439L215 439L215 425L201 425L201 439L201.071 439C 201.11966 439.3382 201.19284 439.67242 201.29 440L201.29 440L201 440L201 443.292L202.271 442.022C 202.46391 442.29642 202.67612 442.55673 202.90599 442.801L202.90599 442.801L201.35399 444.354L201 444L201 447.293L204.331 443.962C 204.62895 444.14615 204.94052 444.30728 205.263 444.444L205.263 444.444L201.353 448.354L201 448L201 451.292L207.073 445.219L206.22499 442.67398C 203.96878 441.81723 202.64656 439.47113 203.08209 437.09735C 203.51762 434.72357 205.5866 432.99966 208 432.99966C 210.4134 432.99966 212.48238 434.72357 212.91791 437.09735C 213.35344 439.47113 212.03122 441.81723 209.775 442.67398L209.775 442.67398L208 448L207.427 446.28L201.354 452.353L201 452zM186 454L200 454L200 440L186 440zM205 438C 205 439.21338 205.73093 440.30728 206.85194 440.77164C 207.97298 441.236 209.26332 440.9793 210.12132 440.1213C 210.97931 439.26334 211.23598 437.97296 210.77164 436.85196C 210.3073 435.73093 209.2134 435 208 435C 206.34314 435 205 436.34314 205 438zM216 439L230 439L230 428C 230 426.34314 228.65686 425 227 425L227 425L216 425zM186 428L186 439L200 439L200 425L189 425C 187.34314 425 186 426.34314 186 428z" stroke="none" fill="#494949" fill-rule="nonzero" />
	</g>
</g>
</svg>
