<?xml version="1.0" standalone="no"?>
<!DOCTYPE svg PUBLIC "-//W3C//DTD SVG 1.0//EN" "http://www.w3.org/TR/2001/REC-SVG-20010904/DTD/svg10.dtd">
<svg xmlns="http://www.w3.org/2000/svg" xmlns:xlink="http://www.w3.org/1999/xlink" id="body_1" width="32" height="32">

<g transform="matrix(1.3333334 0 0 1.3333334 0 0)">
	<g>
	</g>
	<g>
	</g>
	<g>
		<path  d="M2 2L22 2" stroke="#1C274C" stroke-width="1.5"  stroke-linecap="square" fill="none" />
		<path  d="M4 2L20 2L20 12.2774C 20 13.6175 20 14.2875 19.7319 14.8783C 19.4638 15.4692 18.9595 15.9104 17.951 16.7929L17.951 16.7929L15.951 18.5429C 14.0685 20.1901 13.1272 21.0137 12 21.0137C 10.8728 21.0137 9.93152 20.1901 8.04897 18.5429L8.04897 18.5429L6.04897 16.7928C 5.04046 15.9104 4.5362 15.4692 4.2681 14.8783C 4 14.2875 4 13.6175 4 12.2774L4 12.2774L4 2z" stroke="#1C274C" stroke-width="1.5"  fill="none" />
		<path  d="M8.5 13L15.5 13" stroke="#1C274C" stroke-width="1.5"  stroke-linecap="square" fill="none" />
		<path  d="M8.5 8L15.5 8" stroke="#1C274C" stroke-width="1.5"  stroke-linecap="square" fill="none" />
	</g>
</g>
</svg>
